<?xml version="1.0" standalone="no"?>
<!DOCTYPE svg PUBLIC "-//W3C//DTD SVG 20010904//EN"
 "http://www.w3.org/TR/2001/REC-SVG-20010904/DTD/svg10.dtd">
<svg version="1.0" xmlns="http://www.w3.org/2000/svg"
 width="200.000000pt" height="200.000000pt" viewBox="0 0 200.000000 200.000000"
 preserveAspectRatio="xMidYMid meet">
<metadata>
Created by potrace 1.14, written by Peter Selinger 2001-2017
</metadata>
<g transform="translate(0.000000,200.000000) scale(0.100000,-0.100000)"
fill="#000000" stroke="none">
<path d="M888 1995 c-1 -1 -25 -6 -53 -9 -128 -17 -308 -95 -435 -188 -172
-126 -331 -365 -366 -548 -2 -14 -7 -32 -11 -40 -19 -47 -24 -293 -7 -381 33
-176 108 -341 209 -459 136 -161 311 -276 503 -331 93 -27 149 -33 282 -33
140 0 193 8 305 46 289 98 521 324 624 609 72 201 76 436 9 655 -54 177 -185
358 -344 477 -182 137 -358 198 -586 203 -69 1 -128 1 -130 -1z"/>
</g>
</svg>
